<svg xmlns="http://www.w3.org/2000/svg" viewBox="0 0 711 267"><filter id="b"><feGaussianBlur stdDeviation="12" /></filter><path fill="#7f7367" d="M0 0h711v266H0z"/><g filter="url(#b)" transform="translate(1.4 1.4) scale(2.77734)" fill-opacity=".5"><path fill="#261501" d="M47.3 26.4l56.5-13 14.9 64.2-56.5 13z"/><ellipse fill="#c7c9c9" rx="1" ry="1" transform="rotate(-19.5 232 -704.6) scale(37.18821 52.75054)"/><path fill="#fff2d6" d="M20.3 40.5L49 48.8l-9.4 32.7L11 73.2z"/><ellipse fill="#fff" rx="1" ry="1" transform="matrix(13.00847 -17.69328 11.74562 8.63563 22 0)"/><path fill="#061325" d="M188 0h21v49h-21z"/><ellipse fill="#6c5a36" cx="106" cy="85" rx="49" ry="21"/><ellipse fill="#c6c2bf" rx="1" ry="1" transform="matrix(-22.49037 -12.03073 5.44615 -10.18108 165.8 5.4)"/><ellipse fill="#261800" rx="1" ry="1" transform="matrix(24.2077 23.58853 -5.11448 5.24873 0 67)"/></g></svg>