<svg xmlns="http://www.w3.org/2000/svg" viewBox="0 0 500 500"><filter id="b"><feGaussianBlur stdDeviation="12" /></filter><path fill="#7c5047" d="M0 0h500v500H0z"/><g filter="url(#b)" transform="translate(1 1) scale(1.95313)" fill-opacity=".5"><ellipse fill="#fffddb" cx="98" cy="222" rx="44" ry="44"/><ellipse fill="#060000" rx="1" ry="1" transform="rotate(-2.3 2369.6 -483.8) scale(30.84421 209.37973)"/><ellipse fill="#cbdde0" rx="1" ry="1" transform="matrix(7.25271 18.7096 -45.86794 17.78056 94 48.8)"/><ellipse fill="#effffa" rx="1" ry="1" transform="matrix(20.032 7.45765 -8.70867 23.39237 159.7 187)"/><ellipse fill="#fbcb9a" rx="1" ry="1" transform="matrix(3.50145 34.47117 -21.22525 2.15598 124 91.6)"/><path fill="#e1eae7" d="M91.3 192.4l-32.1-88.3 23.5-8.5 32.1 88.3z"/><ellipse rx="1" ry="1" transform="matrix(-42.37367 -1.62443 .5404 -14.09637 77.5 14)"/><ellipse fill="#0b0000" rx="1" ry="1" transform="matrix(1.3012 -16.9105 23.39073 1.79982 181.9 241.8)"/></g></svg>